<?xml version="1.0" encoding="UTF-8"?>
<svg id="Layer_2" data-name="Layer 2" xmlns="http://www.w3.org/2000/svg" viewBox="0 0 190 190">
  <defs>
    <style>
      .cls-1 {
        fill: #ff891d;
      }

      .cls-1, .cls-2 {
        stroke-width: 0px;
      }

      .cls-2 {
        fill: #fff;
      }
    </style>
  </defs>
  <g id="Layer_1-2" data-name="Layer 1">
    <g>
      <circle class="cls-1" cx="95" cy="95" r="95"/>
      <path class="cls-2" d="M136.37,62.96c-1.92-2.07-2.66-3.85-1.1-5.74,1.56-1.89,3.45-1.46,5.36-.49,4.02,2.04,8.04,4.06,12.09,6.05,1.65.81,3.08,1.81,3.05,3.83-.03,2.02-1.51,2.97-3.15,3.77-3.91,1.91-7.8,3.84-11.67,5.83-1.95,1.01-3.89,1.7-5.6-.23-1.71-1.93-.9-3.78,1.03-5.84h-16.18c0,2.31-.05,4.48.05,6.65.02.38.57.88,1,1.06,11.62,4.94,15.7,13.39,11.97,25.81-3.73,12.42-12.1,20.13-24.85,22.8-2.05.43-2.89,1.23-3.58,3.19-3.24,9.28-13.03,13.72-23.34,10.82-10.75-3.03-18.16-12.71-18.28-23.88-.01-1.1,0-2.2,0-3.71-2.23,0-4.32.02-6.41,0-1.98-.02-3.97.05-5.93-.14-5.3-.53-9.27-4.83-9.49-10.16-.06-1.5,0-3,0-4.47-.73-.41-1.37-.73-1.97-1.1-4.14-2.52-6.03-7.26-4.76-11.88,1.3-4.72,5.48-7.9,10.34-7.88,4.78.03,8.9,3.15,10.21,7.75,1.31,4.61-.53,9.38-4.62,11.94-1.99,1.25-2.7,3.27-1.97,5.97.59,2.21,2.26,2.85,4.37,2.82,2.85-.04,5.7-.05,8.55,0,1.31.03,1.92-.32,2.19-1.77,2.92-15.83,15.47-26.41,31.64-26.73,4.98-.1,9.97-.02,14.96-.02.85,0,1.69,0,2.66,0v-7.1c-2.38,0-4.65,0-6.92,0-5.86,0-11.71.07-17.57-.03-5.47-.09-9.37-3.15-10.65-8.09-1.17-4.51.65-9.38,4.8-11.6,1.87-1,4.17-1.48,6.31-1.61,4.18-.24,8.39-.11,12.58-.07,8.97.09,14.83,4.29,17.99,12.74.22.59.95,1.41,1.46,1.42,4.97.11,9.94.06,15.44.06ZM119.88,85.08c-.14.25-.32.51-.43.79-3.35,8.74-9.08,12.69-18.42,12.76-2.45.02-4.91-.05-7.34.19-3.9.39-7.16,3.17-8.12,6.83,10.17-.29,17.08,4.19,20.1,14,12.37-1.35,22.29-12.96,21.64-25.16-.24-4.46-3.18-8.22-7.42-9.41ZM70.57,105.72c2.07,0,3.8-.07,5.51.02,1.25.07,1.76-.43,2.17-1.59,2.91-8.28,8.94-12.54,17.75-12.69,2.69-.04,5.39.06,8.06-.21,3.92-.4,7.37-3.46,7.87-6.77-6.18,0-12.35-.26-18.49.06-10.21.53-18.85,7.49-21.93,17.21-.37,1.17-.57,2.4-.94,3.97ZM97.78,127.36c-.3-.07-.59-.21-.89-.21-9.41.07-15.81-4.15-18.89-13.17-.15-.45-.8-1.02-1.25-1.04-2.09-.11-4.19-.05-6.41-.05,0,1.78-.06,3.2,0,4.61.5,9.91,9.74,17.81,19.34,16.56,3.87-.5,7.14-3.19,8.09-6.7ZM112,62.81c-.9-3.93-4.64-6.74-9.41-6.88-4.49-.14-8.99-.07-13.49-.04-2.91.02-4.6,1.42-4.52,3.65.07,2.15,1.68,3.41,4.51,3.43,7.02.03,14.04.01,21.06,0,.61,0,1.22-.1,1.85-.15ZM85.63,113.24c1.39,4.85,7.39,7.94,12.15,6.25-1.77-4.88-7-7.57-12.15-6.25Z"/>
    </g>
  </g>
</svg>