<?xml version="1.0" encoding="UTF-8"?>
<svg id="Layer_2" data-name="Layer 2" xmlns="http://www.w3.org/2000/svg" viewBox="0 0 190 190">
  <defs>
    <style>
      .cls-1 {
        fill: #ff891d;
      }

      .cls-1, .cls-2 {
        stroke-width: 0px;
      }

      .cls-2 {
        fill: #fff;
      }
    </style>
  </defs>
  <g id="Layer_1-2" data-name="Layer 1">
    <g>
      <circle class="cls-1" cx="95" cy="95" r="95"/>
      <g>
        <path class="cls-2" d="M97.36,76.03c-1.37.66-2.76,1.3-4.12,1.98-2.58,1.3-4.35,3.19-4.52,6.24-.17,3.09,1.17,5.41,3.75,7.01,2.28,1.42,4.63,1.26,6.97.13,2.07-1,4.14-2,6.52-2.83-.53,1.13-.98,2.31-1.61,3.38-2.06,3.53-5.25,5.88-8.54,8.15-2.48,1.71-4.97,3.46-7.24,5.43-2.12,1.84-1.8,3.13.72,4.34,8.32,3.99,14.15,10.41,18.29,18.53,3.45,6.75,5.26,13.99,6.51,21.4.66,3.89-1.91,7.37-5.71,8.07-3.81.7-7.3-1.64-8.28-5.46-1.21-4.71-2.3-9.46-3.77-14.08-1.14-3.58-3.13-6.8-5.61-9.65-.38-.43-.99-.67-1.49-.99-.26.52-.68,1.02-.77,1.57-1.2,7.85-5.48,13.97-11.11,19.19-3.16,2.93-6.63,5.57-10.13,8.1-3.36,2.43-7.69,1.55-9.92-1.7-2.32-3.39-1.5-7.67,2-10.1,4.17-2.89,8.14-6.02,11.3-10.02,1.05-1.33,2-2.81,2.7-4.35,1.98-4.36,1.08-8.29-2.47-11.51-.6-.54-1.24-1.05-1.87-1.56-5.47-4.42-6.5-9.41-3.17-15.55,5.19-9.58,12.26-17.46,21.37-23.48,2.58-1.71,5.38-2.75,8.51-2.71.53,0,1.06.09,1.58.13.03.12.06.23.09.35Z"/>
        <path class="cls-2" d="M88.58,39.5c1.63-.34,3.08-.69,4.54-.95,1.94-.35,3.48.32,4.5,2,1.07,1.78,2.1,3.58,3.09,5.4.91,1.68.61,3.52-.76,4.98-.95,1.02-1.94,2.01-2.91,3.02-.03.03-.02.08-.07.26.92,1,1.89,2.05,2.85,3.11,1.7,1.87,1.88,3.57.62,5.79-.91,1.61-1.8,3.23-2.76,4.81-1.11,1.82-2.82,2.46-4.87,1.95-1.22-.31-2.45-.59-3.68-.88-.13-.03-.27,0-.52,0-.41,1.44-.81,2.91-1.26,4.36-.64,2.09-2.12,3.21-4.3,3.24-1.9.03-3.79.03-5.69,0-2.17-.03-3.63-1.16-4.3-3.26-.48-1.5-.97-2.99-1.49-4.61-1.61.39-3.17.75-4.73,1.14-2.02.51-3.81-.16-4.88-1.94-1.04-1.74-2.05-3.5-3.01-5.29-.97-1.81-.74-3.45.61-4.99,1.04-1.18,2.11-2.33,3.46-3.81-1.13-.99-2.27-1.88-3.28-2.89-1.5-1.5-1.74-3.19-.73-5.07.98-1.83,1.99-3.64,3.09-5.4.97-1.56,2.45-2.23,4.29-1.94,1.29.21,2.59.44,3.83.82,1.21.37,1.7-.01,1.95-1.19.22-1.05.62-2.07.97-3.1.65-1.89,2.05-2.96,4.05-3,1.98-.04,3.97-.04,5.96,0,2.16.05,3.56,1.12,4.19,3.18.42,1.37.8,2.76,1.23,4.27ZM89.92,54.34c.01-5.57-4.47-10.11-10-10.15-5.6-.04-10.14,4.51-10.14,10.15,0,5.55,4.51,10.06,10.07,10.08,5.53.02,10.06-4.51,10.07-10.08Z"/>
        <path class="cls-2" d="M117.23,76.64c0,2.14-.97,3.44-2.66,4.26-4.86,2.37-9.73,4.73-14.6,7.1-.61.3-1.21.6-1.83.88-2.53,1.13-5.03.28-6.19-2.09-1.14-2.34-.23-4.86,2.29-6.11,3.23-1.61,6.48-3.17,9.72-4.76,1.13-.56,2.74-.89,3.22-1.8.46-.87-.22-2.38-.48-3.59-.77-3.66-1.56-7.32-2.39-10.97-.65-2.84.45-5.01,3.03-5.77,2.59-.76,5,.46,5.83,3.2.64,2.11,1.01,4.3,1.46,6.46.84,4.06,1.66,8.13,2.47,12.2.08.4.1.8.13,1Z"/>
        <path class="cls-2" d="M110.81,85.92c1.61-.8,3.22-1.59,4.82-2.4,3.56-1.8,4.97-4.63,4.22-8.59-.55-2.88-1.16-5.74-1.74-8.6,3.3-1.8,11.06.04,14.41,6.14,3.26,5.94.97,13.98-5,17.29-5.75,3.19-13.82,1.37-16.71-3.84Z"/>
      </g>
    </g>
  </g>
</svg>