<?xml version="1.0" encoding="UTF-8"?>
<svg id="Layer_2" data-name="Layer 2" xmlns="http://www.w3.org/2000/svg" viewBox="0 0 395.39 385.73">
  <defs>
    <style>
      .cls-1 {
        fill: #118fbc;
      }

      .cls-1, .cls-2, .cls-3, .cls-4 {
        stroke-width: 0px;
      }

      .cls-2 {
        fill: #b5e9ef;
      }

      .cls-5 {
        fill: none;
        stroke: #00a2b2;
        stroke-linecap: round;
        stroke-linejoin: round;
        stroke-width: 3.98px;
      }

      .cls-3 {
        fill: #00a2b2;
      }

      .cls-4 {
        fill: #a7d2ed;
      }
    </style>
  </defs>
  <g id="Layer_1-2" data-name="Layer 1">
    <g>
      <g>
        <g>
          <path class="cls-2" d="M345.98,248.3c-.27-.06-.54-.13-.82-.19l.1-14.52s-6.69-25.47-31.68-37.65l-31.68-16.12-4.96-3.22c.81-2.49,1.87-2.73.33-6.59l-7.11-11.97-4.05-.79-10.49,9.17-37.73,38.9-1.3,1.33-2.38-2.97s-13.76-15.14-8.5-25.93l.58-9.29-9.99,3.17-14.97,11.83-1.93,1.52c-16.77,4.77-33.17,8.67-35.41,10.35-3.61,2.71-8.74,11.13-8.74,11.13,0,0-26.14,18.5-36.52,23.92l-10.87,6.52-.69-.67c-3.75-8.91-6.02-17.79-9.32-23.74-2.45-4.43-4.11-7.91-4.11-7.91l-13.29-24.8s-21.74,10.64-36.21,13.17l5.41,31.1s-.77,1.95,1.49,5.11c1.79,2.5,23.85,49.15,30.88,63.52,1.89,3.86,5.52,6.58,9.76,7.3l16.45.07-40.54-45.9,81.23,28.88,40.48-12.64,8.26,11.73,47.39-20.76-5.61-12.19,33.14-13.54,70.41,98.91c-.4.19-35.02,15.37-35.18,15.45,0,0,10.26,2.62,10.25,2.62-.15.07-11.93,5.84-12.08,5.91,0-.02,0-.05,0-.07-11.92-1.46-16.26,3.68-16.26,3.68l-53.16,3.81c5.56,4.17,1.91,12.95,1.9,17.36l126.3.42.21-74.49h4.45v-56.63c0-2.06-1.42-3.84-3.43-4.32Z"/>
          <path class="cls-2" d="M174.55,370.93l-13.04-12.34-11.4-4.16.33,4.16c.32,5.34.53,20.77.58,24.12h53.23c-.4-.18-20.42-5.57-20.79-5.75-3.28-1.51-6.29-3.55-8.91-6.04Z"/>
        </g>
        <g>
          <path class="cls-3" d="M293.19,85.24c-5.75-2.36-18.24-7.43-32.58-12.88l.77,1.45c3.03,1.97,6.2,5.69,7.01,12.71,1.13,9.77-4.06,16.42-10.25,20.25l.25,2.46s-4.04,24.8,7.99,29.66c.17-1.05.35-1.98.53-2.7,1-4.02,27.88-27.12,26.2-49.56l.08-1.4Z"/>
          <polygon class="cls-1" points="266.38 138.9 266.38 138.9 266.38 138.9 266.38 138.9"/>
        </g>
        <g>
          <polygon class="cls-4" points="184.44 59.85 184.43 59.85 184.43 59.85 184.44 59.85"/>
          <path class="cls-2" d="M231.65,7.88c-7.09-.55-15.13.26-19.97,5.47-19.45,20.95-18.13,24.72-18.13,24.72l2.1-3.22c-13.15-6.5-25.9-10.57-33.37-7.2-20.43,9.19,17.24,29.8,17.24,29.8l5.75,3.42c2.95-4.98,6.49-5.96,6.49-5.96,3.14-1.89,8.98-.73,8.98-.73,25.51,3.81,96.66,33.54,96.66,33.54C321.13,9.1,231.65,7.88,231.65,7.88Z"/>
        </g>
        <path class="cls-3" d="M203.85,84.15c.53-2.16-.37-4.39-2.18-5.42-.19-.11-.4-.21-.58-.27-.2-.09-.42-.15-.68-.21-2.58-.56-5.2,1.21-5.86,3.93-.53,2.16.37,4.39,2.19,5.44.19.11.39.2.62.29.21.07.4.13.63.18,2.57.56,5.2-1.21,5.86-3.94Z"/>
        <path class="cls-3" d="M234.57,62.89c-5.4,19.15-15.09,37.81-12.46,36.49.09-.05.19-.1.31-.15,2.28-1.12,32.81-28.52,32.81-28.52l-20.67-7.82Z"/>
        <path class="cls-5" d="M234.57,62.89c-5.4,19.15-15.09,37.81-12.46,36.49.09-.05.19-.1.31-.15,2.28-1.12,32.81-28.52,32.81-28.52"/>
        <path class="cls-5" d="M241.93,110.09c5.69,3.06,28.72-4.03,26.46-23.56-.81-7.03-3.98-10.75-7.01-12.71"/>
        <path class="cls-5" d="M256.11,83.08c2.85,3.15,5.01,6.61-4.77,15.97"/>
        <path class="cls-5" d="M207.71,75.82s-11.6-2-13.87-8.66"/>
        <path class="cls-5" d="M196.11,33.65s-.63-5.09,18.82-26.04c4.84-5.22,12.88-6.03,19.97-5.47l21.4,2.34c1.05-2.09,8.89.06,8.6,2.38,0,0,57.29,24.41,31.65,79.77,0,0-71.16-29.73-96.66-33.54"/>
        <path class="cls-5" d="M127.09,310.38s-3.27-1.75-6.11,0l-2.08,1.56,31.01,33.65,24.64,23.32c2.62,2.48,5.63,4.52,8.91,6.04,4.55,2.1,11.26,4.77,17.12,5.44l17.58,1.32s5.2-16.75-10.73-23.22c0,0-2.26-13.09-7.67-18.95,0,0-8.12-18.95-6.32-28.88,0,0-9.93-3.61-10.83,7.67v17.6s-.9,3.61-15.8-4.51-33.85-21.31-33.85-21.31c0,0-3.31-1.53-7.83,1.27l27.23,25.9"/>
        <polyline class="cls-5" points="161.51 356.56 131.61 345.65 47.22 254.68 128.46 283.57 168.94 270.93 177.2 282.66 224.58 261.9 218.97 249.72 252.11 236.18 322.97 334.56 285.96 350.81"/>
        <path class="cls-5" d="M212.21,361.14l57.5-6.72s8.57-10.15,34.75,2.14"/>
        <path class="cls-5" d="M345.26,249.16v-23.3s-6.69-25.47-31.68-37.65l-31.68-16.12"/>
        <line class="cls-5" x1="345.26" y1="383.74" x2="345.26" y2="309.25"/>
        <path class="cls-5" d="M214.2,209.1s-29.22,37.49-29.11,70.1"/>
        <path class="cls-5" d="M218.97,203.69s12.38-6.77,14.18-5.87c1.81.9,25.18,11.28,25.18,11.28l18.6-32.49s6.32-5.87,2.71-14.89l-7.22-10.79h-6.32"/>
        <line class="cls-5" x1="263.85" y1="158.05" x2="218.97" y2="203.69"/>
        <path class="cls-5" d="M150.44,356.56c.32,5.34.53,20.77.58,24.12"/>
        <path class="cls-5" d="M139.29,230.76s2.19,21.49,4.68,47.96"/>
        <polyline class="cls-5" points="203.66 221.76 194.18 196.29 168.94 199.62 196.29 163.9 203.2 161.16"/>
        <path class="cls-5" d="M206.29,172.09s-1.84,12.89,37.66,3.13"/>
        <path class="cls-5" d="M87.83,229.17l10.87-6.52c10.38-5.42,36.52-23.92,36.52-23.92,0,0,5.13-8.42,8.74-11.13,2.24-1.68,25.86-7.59,42.63-12.37"/>
        <path class="cls-5" d="M93.25,255.59c.34-9.48-12.18-37.72-19.54-51.01-2.45-4.43-6.25-6.74-6.25-6.74l-11.23-23.12s-19.41,9.79-33.89,12.32l7.27,29.28s0,11.28,2.26,14.44c1.79,2.5,23.09,46.35,30.12,60.72,1.89,3.86,5.52,6.58,9.76,7.3l16.45.07"/>
        <path class="cls-5" d="M52.24,174.4s-3.81-9.83-4.21-16.35.8-23.17-7.02-30.39l-29.69-39.31s-7.82-6.22-8.02,2.81l19.06,30.89s-13.64-2.49-8.62,8.28c0,0-5.82-.86-6.62,5.96,0,0-8.22,8.42-3.81,15.44,4.41,7.02,12.44,14.44,17.65,17.05,0,0,5.22,5.92,8.02,15.49"/>
        <path class="cls-5" d="M9.3,159.38s8.63.38,8.43-5.03c0,0,6.62,0,5.01-6.42,0,0,9.63-1.6,5.01-9.03,0,0-14.44-6.3-14.04-8.57"/>
        <path class="cls-5" d="M22.35,122.05s14.52.46,22.9,12.26"/>
        <path class="cls-5" d="M175.12,121.79s3.2,7.37,2.27,13.06c-.79,4.83,4.36,10.57,16.99,11.79,4.53.44,8.24,2.37,9.17,6.82l3.16,19.85"/>
        <path class="cls-5" d="M190.92,53.83s-10.06,2.81-10.4,22.85l-12.43,20.33s-5.36,7.37,7.7,10.38l-2.01,7.37s10.65,1.73,17.14,7.03"/>
        <path class="cls-5" d="M264.9,150.94s1-10.72,2.01-14.74c1-4.02,27.88-27.12,26.2-49.56"/>
        <path class="cls-5" d="M211.17,198.46s-10.73-17.64-5.46-28.44"/>
        <path class="cls-5" d="M258.39,109.24s-4.04,24.8,7.99,29.66"/>
        <path class="cls-5" d="M242.93,63.51s-59.76-46.24-80.19-37.06c-20.43,9.19,15.95,29.92,15.95,29.92"/>
        <path class="cls-5" d="M67.46,197.84s-26.5,12.29-37.84,15.69"/>
        <circle class="cls-3" cx="35.72" cy="197.7" r="2.84"/>
        <path class="cls-5" d="M313.58,250.39s17.55-4.17,31.43-1.24c2.58.55,4.4,2.87,4.4,5.51v54.58h-33.57l-2.26-58.85Z"/>
        <path class="cls-5" d="M315.34,273.71s18.14-1.57,34.07,0"/>
        <ellipse class="cls-3" cx="340.84" cy="260.51" rx="2.63" ry="4.35"/>
      </g>
      <path class="cls-5" d="M332.38,66.8c1.65-7.21,16.61-9.95,33.41-6.12,16.81,3.83,29.1,12.79,27.45,20.01-1.65,7.21-16.61,9.95-33.41,6.12-11.96-2.73-21.19-6.94-20.51-9.91.68-2.96,11.04-3.69,22.99-.96,4.44,1.01,8.73,2.4,12.96,4.13,5.03,2.06,10.19,6.48,8.01,13.41-1.45,4.6-6.82,6.54-10.7,7.31-5.52,1.09-10.73,1.2-16.21.59-8.93-1-13.99-4.42-13.49-6.59.49-2.17,5.87-2.79,14.62-.8,8.75,2,15.45,5.31,14.96,7.48,0,0,1.6,10.56-19.84,12.12"/>
    </g>
  </g>
</svg>