<?xml version="1.0" encoding="UTF-8"?>
<svg id="Layer_2" data-name="Layer 2" xmlns="http://www.w3.org/2000/svg" viewBox="0 0 190 190">
  <defs>
    <style>
      .cls-1 {
        fill: #ff891d;
      }

      .cls-1, .cls-2 {
        stroke-width: 0px;
      }

      .cls-2 {
        fill: #fff;
      }
    </style>
  </defs>
  <g id="Layer_1-2" data-name="Layer 1">
    <g>
      <circle class="cls-1" cx="95" cy="95" r="95"/>
      <path class="cls-2" d="M120.55,150.29c-.78,0-1.54-.21-2.28-.64l-1.59-.91c-3.57-2.05-7.14-4.1-10.71-6.15l-.18-.1c-3.53-2.02-7.18-4.11-10.8-6.12-6.8,4.1-14.02,8.45-21.03,12.79-1.05.65-2.07.97-3.11.97s-2.07-.32-3.16-.97c-2.24-1.34-4.56-2.64-6.81-3.9-1.16-.65-2.31-1.3-3.47-1.95-2.62-1.49-5.24-2.99-7.86-4.48l-5.93-3.38c-.87-.49-1.9-1.5-1.9-3.47,0-3.17,0-6.34,0-9.51v-10.67c0-3.82,0-7.64-.01-11.47,0-1.29.26-3.13,2.63-4.22,4.25-1.96,8.54-4.04,12.69-6.05,1.76-.85,3.53-1.71,5.3-2.56,1.74-.84,3.49-1.66,5.25-2.46,0-3.62,0-7.24,0-10.85,0-6.22,0-12.45-.03-18.67,0-2.14.9-3.6,2.77-4.48,2.97-1.38,5.97-2.84,8.88-4.25l1.94-.94c.94-.45,1.88-.9,2.81-1.35,2.6-1.24,5.28-2.53,7.84-3.89,1.11-.59,2.19-.88,3.3-.88s2.18.27,3.43.85c2.91,1.36,5.92,2.68,8.82,3.95,1.42.62,2.83,1.24,4.25,1.87,1.58.7,3.15,1.41,4.72,2.11,1.92.86,3.84,1.72,5.76,2.58,1.09.48,2.38,1.55,2.38,3.91v23.16c0,2.32,0,4.65,0,6.98,5.3,2.69,10.51,5.37,15.71,8.05l4.9,2.52.14.04c2.08.8,3.12,2.37,3.11,4.65-.07,9.36-.07,18.88-.07,28.09v3.2c0,1.72-.71,3.02-2.11,3.86-2.64,1.59-5.27,3.19-7.91,4.79l-6.93,4.21c-2.76,1.67-5.52,3.34-8.27,5.02-.8.49-1.62.73-2.45.73ZM48.85,130.18c1.69.91,3.35,1.87,4.96,2.79l4.19,2.39c3.16,1.8,6.33,3.6,9.49,5.4,0-8.26.01-16.52-.02-24.79-1.63-.97-3.31-1.92-4.95-2.83,0,0-.79-.44-.81-.46,0,1.04,0,2.08,0,3.13-.02,2.25-1.36,3.65-3.5,3.65-2.16,0-3.5-1.4-3.51-3.65v-1.1c-.02-1.94-.03-3.95.01-5.94-1.03-.56-2.05-1.13-3.08-1.7-.92-.51-1.85-1.02-2.77-1.53,0,3.49,0,17.21,0,17.21,0,2.47,0,4.95,0,7.42ZM98.58,130.23c3.03,1.65,6.02,3.35,8.91,5l.53.3c2.77,1.57,5.53,3.16,8.38,4.79l.7.4c0-7.55,0-24.64,0-24.64,0-.05,0-.15,0-.15-1.89-1.09-3.83-2.17-5.73-3.22,0,1.01,0,2.02-.02,3.03-.06,2.76-1.9,3.75-3.46,3.75-.1,0-.19,0-.29,0-1.57-.1-3.25-1.16-3.27-3.81v-.89c-.02-1.96-.04-3.99.01-5.99,0,0-.02,0-.02-.01-1.93-1.04-3.85-2.1-5.73-3.14,0,3.18,0,15.56,0,15.56,0,3.02,0,6.04,0,9.06ZM124.14,115.89c.02,5.7.02,11.37.02,17.04,0,2.56,0,5.11,0,7.67,1.19-.72,2.39-1.45,3.59-2.19,1.6-.98,3.2-1.95,4.8-2.92l1.04-.63c2.49-1.51,5.06-3.07,7.63-4.56-.01-3.15-.01-6.31-.01-9.46v-15.04s-16.91,9.99-16.91,9.99c-.07.04-.12.08-.17.1ZM84.98,109.64c-3.15,1.86-6.4,3.79-9.63,5.64-.78.45-.85.63-.84,1.35.07,6.29.07,12.69.06,18.87,0,1.68,0,3.35,0,5.03,1.76-1.06,8.52-5.14,8.52-5.14,2.81-1.7,5.61-3.39,8.42-5.08,0-5.93,0-11.82,0-17.71v-6.83c-.37.22-6.52,3.86-6.52,3.86ZM115.27,106.72c1.79,1.02,3.58,2.04,5.38,3.04.49-.26.95-.54,1.44-.84l.6-.36c4.94-2.94,9.88-5.88,14.81-8.83-1.54-.8-3.13-1.61-4.72-2.41-1.38.72-2.75,1.46-4.12,2.2l-2.04,1.1s-9.15,4.9-11.35,6.09ZM65.5,106.7c1.82,1.02,3.6,2.01,5.37,2.98,1.67-.98,3.34-1.96,5-2.95,0,0,10.21-6.04,11.85-7.01-1.56-.81-3.12-1.61-4.69-2.4-2.32,1.22-4.63,2.46-6.93,3.7l-2.97,1.6s-6.45,3.44-7.63,4.08ZM53.04,99.81c1.76.97,3.47,1.9,5.18,2.83,1.62-.83,3.25-1.69,4.77-2.51,2.91-1.57,5.82-3.14,8.72-4.71l3.72-2.02c-1.4-.7-2.79-1.41-4.17-2.15-.08-.04-.13-.06-.15-.07-.02,0-.09.02-.2.08-2.71,1.34-5.44,2.64-8.17,3.94,0,0-8.33,3.96-9.69,4.61ZM102.73,99.81c1.73.96,3.43,1.9,5.14,2.82.86-.43,1.72-.89,2.56-1.34l.5-.27c4.19-2.24,8.38-4.49,12.57-6.74.54-.29,1.08-.58,1.62-.88-.37-.19-.74-.38-1.11-.57-1.07-.55-2.15-1.11-3.22-1.66h-.01c-2.28,1.11-4.49,2.19-6.71,3.25-2.12,1.01-4.24,2.02-6.36,3.03-1.66.79-3.32,1.58-4.98,2.37ZM98.64,68.78c.02,6.22.02,12.4.02,18.59v6.5s.34-.16.34-.16c2.18-1.03,4.29-2.03,6.4-3.03,1.52-.73,3.05-1.46,4.57-2.19,2.47-1.19,4.95-2.37,7.43-3.55-.02-3.71-.02-7.36-.02-11.02v-13.86s-.75.34-.75.34c-1.5.69-3,1.37-4.5,2.07-4.17,1.94-8.34,3.89-12.51,5.84l-.99.46ZM74.68,85.03c1.59.86,3.24,1.69,4.83,2.5l4.91,2.51c2.39,1.22,4.79,2.45,7.18,3.68v-15.1c0-3.29-.01-6.57.02-9.85-.87-.4-1.72-.84-2.57-1.27,0,0-2.3-1.17-2.42-1.23,0,0,0,.02,0,.03,0,.99,0,2-.12,3.05-.19,1.71-1.59,3-3.26,3-.77,0-1.53-.28-2.14-.79-.84-.7-1.44-1.95-1.49-3.1-.05-1.15-.05-2.29-.04-3.4,0-.78,0-1.56-.01-2.34-1.62-.84-3.27-1.66-4.91-2.46,0,8.14,0,16.53.03,24.78ZM90.92,60.52c1.4.71,2.79,1.39,4.18,2.05,1.1-.44,2.15-.95,3.25-1.48.48-.23.96-.46,1.45-.69l1.49-.7c2.11-.99,4.22-1.99,6.34-2.97,1.24-.57,2.48-1.14,3.73-1.71.32-.15.64-.29.96-.44-1.6-.7-3.14-1.39-4.68-2.17-.11-.05-.25-.12-.37-.12-.2,0-.59.2-.9.37-1.32.73-2.67,1.41-3.98,2.07,0,0-8.03,4.05-11.47,5.78ZM79.11,54.62c.97.49,1.94.97,2.91,1.42.24.11.48.25.72.39.1.06.22.13.32.18,1.68-.87,3.36-1.73,5.05-2.58,0,0,8.88-4.5,10.77-5.46-1.15-.52-2.3-1.03-3.46-1.53-.19-.08-.31-.13-.39-.15-.55.21-1.12.5-1.71.8-.28.14-.56.29-.85.43-4.46,2.17-8.91,4.34-13.36,6.51Z"/>
    </g>
  </g>
</svg>