<?xml version="1.0" encoding="UTF-8"?>
<svg id="Layer_2" data-name="Layer 2" xmlns="http://www.w3.org/2000/svg" viewBox="0 0 190 190">
  <defs>
    <style>
      .cls-1 {
        fill: #ff891d;
      }

      .cls-1, .cls-2 {
        stroke-width: 0px;
      }

      .cls-2 {
        fill: #fff;
      }
    </style>
  </defs>
  <g id="Layer_1-2" data-name="Layer 1">
    <g>
      <circle class="cls-1" cx="95" cy="95" r="95"/>
      <g>
        <path class="cls-2" d="M65.94,98.99c-1.83.2-3.67.39-5.5.59-2.23.25-4.45.52-6.68.77-1.14.13-1.29.25-1.59,1.38-.83,3.09-1.67,6.18-2.48,9.28-.13.51-.33.68-.86.59-2.87-.46-5.75-.88-8.62-1.31-.22-.03-.43-.09-.65-.12-1.15-.14-1.77-.78-2.03-1.91-.88-3.81-1.38-7.66-1.49-11.56-.28-9.8,1.71-19.12,6.11-27.87,7.32-14.53,18.66-24.53,34.17-29.65,6.29-2.08,12.75-3.22,19.39-3.24,11.4-.04,21.81,3.29,31.26,9.59,2.8,1.87,5.41,4.04,8.07,6.11,1.08.84,1.1,1.25.59,2.49-.68,1.66-1.33,3.34-1.98,5.02-.38.98-.67,1.2-1.7,1.18-2.56-.06-5.12-.14-7.68-.21-.71-.02-1.3.16-1.65.86-2.15,4.3-4.31,8.59-6.47,12.88-.07.14-.12.3-.06.57.18-.12.38-.24.55-.38,3.31-2.69,6.62-5.38,9.9-8.1.63-.52,1.23-.6,1.98-.32,2.26.85,4.53,1.67,6.8,2.51.99.36,1.26.26,1.8-.66,1.39-2.35,2.79-4.71,4.18-7.06.19-.31.39-.61.6-.93,15.8,18.64,18.02,53.98-4.6,76.65-.14-.25-.27-.47-.38-.7-1.69-3.42-3.39-6.84-5.06-10.28-.23-.48-.45-.59-.96-.45-1.94.56-3.89,1.07-5.84,1.62-1.29.36-1.54.29-2.33-.75-1.66-2.18-3.31-4.35-4.98-6.52-.26-.34-.58-.63-.87-.94-.07.03-.14.07-.22.1.17,1.1.33,2.2.51,3.3.53,3.26,1.06,6.52,1.58,9.78.17,1.08.33,1.23,1.44,1.22,2.09,0,4.19-.02,6.28-.03.27,0,.54,0,.9,0,.08,1.05.16,2.05.22,3.04.16,2.43.3,4.87.47,7.3.05.77-.21,1.32-.86,1.74-7.85,5.02-16.38,8.13-25.68,9.1-8.07.84-16.02.31-23.75-2.17-15.48-4.98-27.21-14.57-34.94-28.95-.53-.99-.53-1.01.55-1.31,3.42-.95,6.84-1.89,10.26-2.83,1.09-.3,1.42-.69,1.44-1.83.06-3.94.12-7.88.17-11.83.02-1.34.2-1.6,1.45-2.06,2.77-1.02,5.55-2.05,8.32-3.08.34-.13.66-.29.99-.44-.02-.07-.04-.14-.05-.2ZM97.59,73.86c.44.12.78.18,1.09.31,2.39.98,3.87,2.8,4.7,5.2.26.77.49,1.56.88,2.26,1.15,2.04,3.52,2.81,5.77,1.95,2.17-.83,3.4-2.92,2.92-5.12-1-4.59-3.48-8.1-7.74-10.24-2.14-1.08-4.43-1.63-6.78-2-.63-.1-.83-.35-.83-1,0-1.4-.03-2.81-.18-4.21-.15-1.5-1.33-2.26-2.81-1.95-1.01.22-1.61.9-1.71,2.13-.1,1.23-.14,2.46-.16,3.69-.02.76-.33,1.21-1.09,1.34-.63.11-1.26.23-1.89.35-3.42.65-6.51,1.94-8.98,4.48-2.7,2.78-3.81,6.21-4.02,9.99-.17,3.23.41,6.28,2.28,9,1.48,2.15,3.46,3.73,5.83,4.75,2.19.94,4.46,1.71,6.7,2.53.71.26,1.2.61,1.19,1.46-.02,4.98,0,9.96-.01,14.94,0,.43-.05.85-.08,1.29-2.82-.52-5.25-2.61-6.4-5.46-.56-1.39-1.03-2.82-1.57-4.23-.58-1.51-1.63-2.51-3.23-2.85-3.61-.77-6.5,1.93-6.13,5.71.37,3.78,2.24,6.79,4.87,9.38,3.05,3,6.84,4.48,10.99,5.17,1.48.25,1.53.32,1.56,1.84.03,1.55.06,3.11.2,4.65.12,1.27.98,1.91,2.3,1.89,1.26-.02,1.95-.62,2.12-1.91.09-.76.11-1.52.15-2.29.05-1.32.09-2.65.14-3.96,1.09-.19,2.08-.34,3.07-.53,7.85-1.52,14.82-8.11,14.01-17.74-.45-5.36-2.87-9.45-7.64-12.05-2.58-1.4-5.4-2.13-8.18-2.96-1.18-.35-1.33-.54-1.33-1.77,0-4.39,0-8.77,0-13.16,0-.26,0-.53,0-.9Z"/>
        <path class="cls-2" d="M97.74,115.38v-16.09c2.67.51,4.99,1.53,6.5,3.82,1.69,2.56,1.68,5.27.2,7.91-1.44,2.57-3.73,3.95-6.7,4.36Z"/>
        <path class="cls-2" d="M92.61,87.5c-3.1.24-6.43-3.28-6.51-6.82-.08-3.57,3.08-6.93,6.51-6.85v13.67Z"/>
      </g>
    </g>
  </g>
</svg>